inDegrees=no
num_controls=7
num_derivatives=13
num_iterations=68
num_multipliers=7
num_parameters=0
num_slacks=7
num_states=26
objective=0.510550
objective_accelerations=0.039848
objective_balance=0.002937
objective_effort=0.029484
objective_height=0.325471
objective_ligament=0.112809
solver_duration=859.518092
status=Solve_Succeeded
success=true
DataType=double
version=3
OpenSimVersion=4.5
endheader
time	/jointset/ground_pelvis/pelvis_tilt/value	/jointset/ground_pelvis/pelvis_tx/value	/jointset/ground_pelvis/pelvis_ty/value	/jointset/hip_l/hip_flexion_l/value	/jointset/hip_l/hip_adduction_l/value	/jointset/hip_l/hip_rotation_l/value	/jointset/back/lumbar_extension/value	/jointset/patellofemoral_l/patellar_flexion_l/value	/jointset/knee_l/knee_flexion_l/value	/jointset/knee_l/knee_adduction_l/value	/jointset/knee_l/knee_rotation_l/value	/jointset/ankle_l/ankle_angle_l/value	/jointset/subtalar_l/subtalar_angle_l/value	/jointset/ground_pelvis/pelvis_tilt/speed	/jointset/ground_pelvis/pelvis_tx/speed	/jointset/ground_pelvis/pelvis_ty/speed	/jointset/hip_l/hip_flexion_l/speed	/jointset/hip_l/hip_adduction_l/speed	/jointset/hip_l/hip_rotation_l/speed	/jointset/back/lumbar_extension/speed	/jointset/patellofemoral_l/patellar_flexion_l/speed	/jointset/knee_l/knee_flexion_l/speed	/jointset/knee_l/knee_adduction_l/speed	/jointset/knee_l/knee_rotation_l/speed	/jointset/ankle_l/ankle_angle_l/speed	/jointset/subtalar_l/subtalar_angle_l/speed	/forceset/tau_hip_flexion_l	/forceset/tau_hip_adduction_l	/forceset/tau_hip_rotation_l	/forceset/tau_knee_flexion_l	/forceset/tau_ankle_angle_l	/forceset/tau_subtalar_angle_l	/forceset/tau_lumbar_extension	lambda_cid13_p0	lambda_cid13_p1	lambda_cid13_p2	lambda_cid13_p3	lambda_cid13_p4	lambda_cid13_p5	lambda_cid14_p0	/jointset/ground_pelvis/pelvis_tilt/accel	/jointset/ground_pelvis/pelvis_tx/accel	/jointset/ground_pelvis/pelvis_ty/accel	/jointset/hip_l/hip_flexion_l/accel	/jointset/hip_l/hip_adduction_l/accel	/jointset/hip_l/hip_rotation_l/accel	/jointset/back/lumbar_extension/accel	/jointset/patellofemoral_l/patellar_flexion_l/accel	/jointset/knee_l/knee_flexion_l/accel	/jointset/knee_l/knee_adduction_l/accel	/jointset/knee_l/knee_rotation_l/accel	/jointset/ankle_l/ankle_angle_l/accel	/jointset/subtalar_l/subtalar_angle_l/accel	gamma_cid13_p0	gamma_cid13_p1	gamma_cid13_p2	gamma_cid13_p3	gamma_cid13_p4	gamma_cid13_p5	gamma_cid14_p0
1.5	0.008033401126339317	-0.00874714794459302	0.8756365403647181	0.5855716344472072	-0.2962317587451743	-0.1955930419617663	-0.7854022536480422	0.63873355495037	0.6387335549504222	-0.06763194749972809	-0.1717012348852927	0.1026266394676705	0.03588094877178469	0.3773003736513952	0.1996128002799169	0.328905240452451	-1.751990978869551	0.1883569041985697	-0.6125565661435964	0.8474816952018746	-1.709097998003329	-1.709097998003302	0.05582535751314236	-0.01403158341681618	-0.3822941209489838	0.07440129940561004	-0.202411379105573	0.0870824581873495	-0.008256443864568974	-0.1697414961843589	0.06777463295233012	-0.0038148673979017	0.2810844489753883	-22.36684292844696	4.29921633451956	0.3153262283672436	-3.908231989449246	-672.0957079269901	-29.35652843846975	-19.91220971137035	0.1341441652709349	0.5891302831034884	-0.5234008658026706	-0.4107522367631703	0.5136759515491257	0.1569825006312611	1.894167334703592	-0.1881550681715949	-0.1881550681716309	-0.08665267351713012	0.006175005270035689	0.3398132144930554	0.6326686136623018	1.7757658846363e-07	7.222095773056815e-07	-8.382970710719464e-07	4.779134276872916e-08	1.731667476654907e-07	3.722005724426093e-07	1.878027977835728e-07
1.51	0.01181270060050652	-0.006721718858496332	0.8788989119634341	0.5680327010402795	-0.2943237164363812	-0.2017098548820325	-0.7768340490077965	0.6216348918669777	0.6216348918670423	-0.06708030485448192	-0.1718419532349727	0.0988209107000864	0.03665525287868149	0.3785056999013262	0.2054545392288155	0.3235168856666312	-1.755589842566009	0.1932072017901746	-0.6107180072342988	0.8660409955950519	-1.710426264062965	-1.710426264062941	0.05444353479416324	-0.01410583235530644	-0.3787942270404839	0.08042615951008504	-0.1946182937290901	0.08522076383349171	-0.008234981280272214	-0.168441674775145	0.07061059788266813	-0.004768659478612446	0.2740006034361548	-21.31618721184618	4.452411241280918	0.3789402945290496	-4.137590765704052	-668.7296579975909	-29.65227610952555	-20.41045863535485	0.1056717870639488	0.5789337864499778	-0.5543450265849414	-0.3035544304639126	0.4640702382787841	0.210679199940346	1.819075803824693	-0.0739468803636895	-0.07394688036430647	-0.1728110827253083	-0.01345437596609667	0.3637151122883862	0.5823713660879661	1.776913818773936e-07	7.33875787734453e-07	-8.405880797036946e-07	4.839963492757877e-08	1.803234421193538e-07	3.850439427967665e-07	1.882541464026202e-07
1.52	0.01560244232362779	-0.004638424765777542	0.8821058415659691	0.550463958797526	-0.2923684984365874	-0.2078056048904391	-0.7680837984811777	0.6045291892218916	0.6045291892219592	-0.06654425323877643	-0.1719832599805471	0.09505190839824	0.03748880091807379	0.3793888234396262	0.2111858016043373	0.3178168412162672	-1.757952746037555	0.1977920423942505	-0.6083439837705336	0.8838908724762218	-1.710505910342768	-1.710505910342749	0.0527071516097119	-0.01414926259609628	-0.3749488278015897	0.0862500859044711	-0.1868252083525776	0.08335906947967774	-0.008213518696062299	-0.1671418533659232	0.07344656281302116	-0.005722451559268622	0.2669167578969333	-20.2682757420594	4.606011776535476	0.442576050217832	-4.40158440106864	-665.4239528600795	-29.99075697404353	-20.88103788070959	0.0697036229448604	0.5670349684280036	-0.5857387987115111	-0.1635601917807568	0.4605845540433385	0.2640754115248506	1.752282632302093	0.06156888779470356	0.06156888779470047	-0.1575647666115906	0.01233874481012025	0.4089142805717355	0.592481871644451	1.775783667997957e-07	7.427744400611023e-07	-8.411177815624167e-07	4.831367719882981e-08	1.887333538691432e-07	3.965442278155211e-07	1.881508840576471e-07
1.53	0.01939939452510335	-0.002498448040331502	0.8852542574672683	0.5328777908119863	-0.2903688331813593	-0.2138750007966418	-0.759158857347708	0.587428929025723	0.5874289290257153	-0.06602736818742497	-0.1721248240691426	0.09132300741233412	0.03837949460942311	0.3799454254942844	0.2167827431980201	0.3118180514655349	-1.759065772390204	0.2020888481694202	-0.605450058933461	0.900953603938013	-1.709331869633914	-1.709331869633947	0.05060853258898539	-0.01415709302905251	-0.3707799792852938	0.09184621284849125	-0.178703982152628	0.08122121188086791	-0.008194332119281755	-0.166200591269083	0.07654212490396094	-0.006789396340216751	0.2595334484449752	-19.14976186379366	4.803978547804115	0.4904727633545949	-4.605693097107666	-662.1598654829492	-30.31142165578167	-21.32094246094669	0.04022697932878296	0.5520131212403635	-0.6141514620218871	-0.05289267113980908	0.4064163619628661	0.3150067093465256	1.661705861207283	0.1774231334538416	0.1774231334460179	-0.2451285106022504	-0.006542307699477504	0.4286057903870583	0.5367909995583334	1.772233052001264e-07	7.487325619042473e-07	-8.397760949747985e-07	4.749007896450736e-08	1.984748089958543e-07	4.066174846654104e-07	1.874583475634022e-07
